Coordinates
version=1
nRows=34
nColumns=38
inDegrees=no

Units are S.I. units (second, meters, Newtons, ...)
If the header above contains a line with 'inDegrees', this indicates whether rotational values are in degrees (yes) or radians (no).

endheader
time	pelvis_tilt	pelvis_list	pelvis_rotation	pelvis_tx	pelvis_ty	pelvis_tz	hip_flexion_r	hip_adduction_r	hip_rotation_r	knee_angle_r	ankle_angle_r	subtalar_angle_r	mtp_angle_r	hip_flexion_l	hip_adduction_l	hip_rotation_l	knee_angle_l	ankle_angle_l	subtalar_angle_l	mtp_angle_l	lumbar_extension	lumbar_bending	lumbar_rotation	arm_flex_r	arm_add_r	arm_rot_r	elbow_flex_r	pro_sup_r	wrist_flex_r	wrist_dev_r	arm_flex_l	arm_add_l	arm_rot_l	elbow_flex_l	pro_sup_l	wrist_flex_l	wrist_dev_l
1.29	1.56066	1.48384	3.09078	0.661031	0.0899839	1.01009	-0.043596	-0.0521169	0.110329	1.02038	-0.361905	0	0	0.291822	0.0984244	-0.283494	0.546969	-0.193396	0	0	-0.291407	-0.153897	0.0313967	-0.0559365	-0.285238	0.68122	0.431277	1.14084	0	0	-0.208399	-0.325827	0.305652	0.541674	1.19124	0	0
1.3	1.50364	1.48294	-3.13139	0.662113	0.0793154	1.01137	-0.0224374	-0.0486849	0.119126	1.06899	-0.368472	0	0	0.273638	0.10228	-0.277923	0.543719	-0.188172	0	0	-0.297666	-0.15371	0.0251229	-0.059927	-0.284684	0.663248	0.439026	1.15967	0	0	-0.209665	-0.331769	0.316879	0.547441	1.17679	0	0
1.31	1.44573	1.48291	-3.06878	0.663312	0.0687455	1.01272	-0.00146595	-0.0435341	0.127257	1.11506	-0.364999	0	0	0.25496	0.104937	-0.2706	0.538345	-0.185007	0	0	-0.303031	-0.151998	0.0148815	-0.0516857	-0.292215	0.711025	0.444261	1.11375	0	0	-0.217425	-0.323723	0.272823	0.549405	1.21539	0	0
1.32	1.37789	1.48263	-2.99579	0.664525	0.0582829	1.01408	0.0187012	-0.0378708	0.133502	1.15977	-0.343737	0	0	0.234832	0.107429	-0.262303	0.531698	-0.180227	0	0	-0.311739	-0.148974	0.01239	-0.0684461	-0.28358	0.624003	0.455172	1.19619	0	0	-0.207624	-0.342959	0.349114	0.554469	1.14186	0	0
1.33	1.32277	1.48332	-2.93592	0.665857	0.0479443	1.01533	0.0408817	-0.0323471	0.135944	1.20137	-0.310042	0	0	0.216007	0.108636	-0.25539	0.525027	-0.175821	0	0	-0.315375	-0.145192	0.000763695	-0.0470543	-0.306076	0.755295	0.465208	1.05964	0	0	-0.216407	-0.330685	0.295395	0.552789	1.18935	0	0
1.34	1.26899	1.48474	-2.87759	0.667172	0.0377619	1.01664	0.0647166	-0.0265577	0.137109	1.24016	-0.286052	0	0	0.197376	0.108633	-0.250633	0.517755	-0.171963	0	0	-0.320701	-0.140001	-0.00339911	-0.0507312	-0.305828	0.736168	0.470703	1.07729	0	0	-0.212177	-0.33142	0.305145	0.549222	1.18206	0	0
1.35	1.20159	1.48664	-2.80547	0.668511	0.0278093	1.01807	0.0885489	-0.0202757	0.137286	1.27502	-0.27223	0	0	0.178036	0.107393	-0.247908	0.510634	-0.168672	0	0	-0.327058	-0.133526	-0.00678251	-0.0532413	-0.305536	0.719416	0.474928	1.09123	0	0	-0.20692	-0.331455	0.313541	0.545274	1.17445	0	0
1.36	1.11671	1.48862	-2.7147	0.669893	0.0182033	1.01961	0.111206	-0.0135142	0.135312	1.30476	-0.263198	0	0	0.158174	0.104992	-0.246398	0.504133	-0.165779	0	0	-0.33488	-0.125753	-0.0107639	-0.0553604	-0.305519	0.701506	0.480007	1.10527	0	0	-0.20102	-0.331732	0.321969	0.542254	1.16608	0	0
1.37	1.01828	1.49064	-2.60908	0.671303	0.00900977	1.02123	0.133223	-0.00612604	0.131534	1.32923	-0.255872	0	0	0.138389	0.101778	-0.242389	0.498125	-0.163029	0	0	-0.343658	-0.116662	-0.0157395	-0.0565854	-0.305565	0.684253	0.485269	1.12094	0	0	-0.194723	-0.332545	0.331359	0.540312	1.15864	0	0
1.38	0.938275	1.49309	-2.52391	0.672571	-0.000183369	1.02271	0.157563	0.00128952	0.129616	1.34934	-0.249556	0	0	0.120698	0.0979752	-0.240856	0.491292	-0.160963	0	0	-0.349269	-0.108362	-0.0184316	-0.05746	-0.304537	0.667343	0.487751	1.13801	0	0	-0.188239	-0.332801	0.340802	0.537186	1.15035	0	0
1.39	0.869146	1.49573	-2.45155	0.673804	-0.00929867	1.02404	0.183329	0.00848738	0.129417	1.36549	-0.237497	0	0	0.104341	0.0941522	-0.241054	0.483193	-0.159077	0	0	-0.35098	-0.101021	-0.0242068	-0.0318833	-0.32679	0.795224	0.494157	1.00383	0	0	-0.189486	-0.323944	0.310211	0.532417	1.1805	0	0
1.4	0.814822	1.49807	-2.39472	0.674938	-0.0183592	1.02524	0.210023	0.0143931	0.129234	1.37737	-0.228757	0	0	0.0892564	0.0905497	-0.242805	0.475288	-0.15818	0	0	-0.353681	-0.0949439	-0.0240733	-0.0333345	-0.326473	0.778234	0.496535	1.02088	0	0	-0.184087	-0.323875	0.316962	0.529574	1.18059	0	0
1.41	0.763838	1.49985	-2.34145	0.675963	-0.0273376	1.02636	0.236126	0.0192348	0.128191	1.38437	-0.220995	0	0	0.0742546	0.087373	-0.244534	0.46716	-0.157636	0	0	-0.356233	-0.0897767	-0.0245094	-0.0345999	-0.325596	0.760464	0.498828	1.03843	0	0	-0.17948	-0.324615	0.324292	0.527895	1.17944	0	0
1.42	0.716857	1.50185	-2.29233	0.676809	-0.0362843	1.0274	0.261749	0.024155	0.126494	1.38641	-0.214018	0	0	0.0595705	0.0840317	-0.245031	0.458546	-0.157198	0	0	-0.358067	-0.0849847	-0.0252507	-0.0357599	-0.324375	0.742606	0.501189	1.05723	0	0	-0.176187	-0.326048	0.329409	0.529359	1.17393	0	0
1.43	0.667889	1.50398	-2.24173	0.677473	-0.045172	1.0284	0.286558	0.0297156	0.125702	1.38343	-0.213414	0	0	0.04518	0.0804285	-0.245646	0.450038	-0.156884	0	0	-0.359272	-0.0806617	-0.0268946	-0.0337414	-0.324056	0.736753	0.502425	1.06617	0	0	-0.174982	-0.32621	0.326036	0.530864	1.17699	0	0
1.44	0.616894	1.50538	-2.18939	0.678072	-0.0540344	1.02938	0.309601	0.0346867	0.125308	1.37556	-0.205179	0	0	0.0292252	0.0778545	-0.243762	0.439448	-0.156238	0	0	-0.361559	-0.0766439	-0.0266922	-0.037638	-0.322323	0.707618	0.507742	1.09827	0	0	-0.171017	-0.330828	0.341522	0.533663	1.16361	0	0
1.45	0.547184	1.50515	-2.11846	0.678755	-0.0628291	1.03042	0.329322	0.0390066	0.124372	1.3625	-0.201407	0	0	0.0112211	0.0753249	-0.242295	0.428859	-0.155791	0	0	-0.361301	-0.0724081	-0.0380733	0.0126202	-0.357375	0.93245	0.518844	0.869706	0	0	-0.181128	-0.324365	0.302514	0.538178	1.1902	0	0
1.46	0.507436	1.50683	-2.07645	0.679391	-0.0717033	1.03126	0.35058	0.0420744	0.122191	1.3445	-0.197576	0	0	-0.00331134	0.0733665	-0.240532	0.418606	-0.156035	0	0	-0.365296	-0.068446	-0.0328646	-0.0236822	-0.336889	0.757776	0.522188	1.04688	0	0	-0.172318	-0.332254	0.331735	0.543174	1.16837	0	0
1.47	0.470301	1.51056	-2.03629	0.680067	-0.0804646	1.03186	0.37263	0.0454416	0.11862	1.32173	-0.197263	0	0	-0.0140732	0.0698096	-0.242366	0.411484	-0.155819	0	0	-0.363651	-0.0636935	-0.0359001	-0.0229409	-0.336455	0.747537	0.524337	1.06006	0	0	-0.172562	-0.332778	0.327198	0.547657	1.17162	0	0
1.48	0.420647	1.51341	-1.98385	0.680782	-0.0890955	1.03246	0.392167	0.0483608	0.114162	1.29451	-0.194095	0	0	-0.0262812	0.0668558	-0.241771	0.402171	-0.155913	0	0	-0.363119	-0.0585739	-0.0389376	-0.0179317	-0.341357	0.760704	0.529821	1.04714	0	0	-0.172958	-0.333203	0.322901	0.553444	1.17272	0	0
1.49	0.375119	1.51615	-1.93564	0.681504	-0.0976592	1.03298	0.410295	0.0503019	0.108985	1.26311	-0.188878	0	0	-0.0387352	0.064817	-0.239339	0.391565	-0.156277	0	0	-0.364012	-0.0536043	-0.0377794	-0.02904	-0.335494	0.700123	0.535654	1.10844	0	0	-0.167343	-0.339793	0.347344	0.560333	1.14693	0	0
1.5	0.327835	1.51918	-1.88597	0.682247	-0.106154	1.0333	0.427219	0.0519719	0.103628	1.22739	-0.185845	0	0	-0.0503097	0.0625284	-0.239005	0.382298	-0.156183	0	0	-0.359815	-0.0489142	-0.0472442	0.0122364	-0.363479	0.874277	0.540711	0.92835	0	0	-0.17577	-0.332174	0.309828	0.564464	1.17241	0	0
1.51	0.27889	1.52238	-1.83486	0.682925	-0.114577	1.0335	0.442488	0.0534706	0.0985264	1.18711	-0.182207	0	0	-0.0613415	0.0603372	-0.239724	0.372962	-0.15609	0	0	-0.355106	-0.0442774	-0.0560128	0.0562807	-0.382867	1.03988	0.542732	0.766604	0	0	-0.180445	-0.329488	0.297161	0.566216	1.17977	0	0
1.52	0.226738	1.52582	-1.78079	0.683525	-0.122968	1.03362	0.456113	0.0548953	0.0934501	1.14294	-0.178207	0	0	-0.0718453	0.0582642	-0.241011	0.363513	-0.155831	0	0	-0.350043	-0.0397119	-0.0642123	0.100297	-0.394116	1.19454	0.542435	0.624019	0	0	-0.183782	-0.327695	0.289895	0.567304	1.18052	0	0
1.53	0.174035	1.52954	-1.72659	0.684062	-0.131354	1.03363	0.468292	0.056071	0.0882809	1.09555	-0.174707	0	0	-0.0818331	0.0565433	-0.242279	0.353829	-0.155837	0	0	-0.34464	-0.0353297	-0.0713856	0.14168	-0.39863	1.33569	0.540503	0.49785	0	0	-0.18597	-0.32605	0.28525	0.567842	1.17737	0	0
1.54	0.126042	1.53476	-1.67748	0.684567	-0.139877	1.03344	0.480021	0.0567314	0.0828395	1.04476	-0.170306	0	0	-0.0898622	0.0549775	-0.243925	0.344758	-0.15599	0	0	-0.340274	-0.0314511	-0.0709667	0.149011	-0.399329	1.35495	0.539131	0.480617	0	0	-0.182779	-0.324981	0.28615	0.56766	1.17646	0	0
1.55	0.117852	1.54471	-1.66746	0.684976	-0.148725	1.03289	0.494502	0.0557802	0.0770629	0.99058	-0.163846	0	0	-0.0925597	0.0545971	-0.242851	0.335938	-0.157119	0	0	-0.344515	-0.0293109	-0.0372425	-0.00870542	-0.344291	0.724066	0.533172	1.08363	0	0	-0.148487	-0.340467	0.366452	0.568068	1.13385	0	0
1.56	0.014662	1.54491	-1.56279	0.685712	-0.157077	1.03267	0.496566	0.0552119	0.06866	0.932906	-0.155535	0	0	-0.105339	0.0527597	-0.244297	0.327587	-0.157351	0	0	-0.331441	-0.0242966	-0.0699254	0.161654	-0.402116	1.38952	0.538672	0.447125	0	0	-0.176317	-0.326351	0.299458	0.570474	1.16584	0	0
1.57	-0.0624212	1.55062	-1.483	0.686365	-0.165828	1.03204	0.502607	0.0529126	0.0588049	0.873173	-0.150075	0	0	-0.111865	0.0518822	-0.243082	0.320077	-0.157488	0	0	-0.326598	-0.0209483	-0.0689536	0.158361	-0.403927	1.37325	0.539506	0.461305	0	0	-0.173456	-0.326011	0.300646	0.573083	1.16519	0	0
1.58	-0.172542	1.55571	-1.36972	0.687068	-0.1746	1.03128	0.506783	0.0499226	0.0469655	0.81238	-0.146056	0	0	-0.118445	0.0510062	-0.241826	0.313845	-0.156969	0	0	-0.319308	-0.017688	-0.0748788	0.184901	-0.404929	1.46572	0.53955	0.382442	0	0	-0.175323	-0.324856	0.298185	0.574281	1.1656	0	0
1.59	-0.355825	1.56086	-1.18284	0.687827	-0.183402	1.0304	0.509567	0.0464041	0.0331357	0.749804	-0.139666	0	0	-0.124473	0.0505349	-0.238814	0.308199	-0.156385	0	0	-0.313671	-0.0147231	-0.0770288	0.191068	-0.406454	1.48508	0.540166	0.364934	0	0	-0.174083	-0.324119	0.298473	0.575771	1.16703	0	0
1.6	-0.652565	1.5647	-0.882221	0.688654	-0.192262	1.02947	0.509955	0.0420176	0.0169797	0.686224	-0.133225	0	0	-0.131855	0.0504989	-0.235097	0.302097	-0.156224	0	0	-0.309299	-0.012129	-0.0794918	0.19672	-0.408169	1.50243	0.54121	0.3465	0	0	-0.172972	-0.323326	0.298223	0.577972	1.16708	0	0
1.61	-2.4608	1.56608	0.932101	0.689436	-0.201511	1.02824	0.513028	0.0362494	-0.00128485	0.622073	-0.129286	0	0	-0.135786	0.0509796	-0.228176	0.295374	-0.156804	0	0	-0.314965	-0.0114785	-0.0513548	0.0455647	-0.388324	0.946587	0.544252	0.841666	0	0	-0.145924	-0.329341	0.336851	0.580232	1.16347	0	0
1.62	-2.35296	1.56553	0.830615	0.690511	-0.210522	1.02722	0.506991	0.0317194	-0.0225305	0.560521	-0.12839	0	0	-0.146756	0.0492488	-0.221533	0.290619	-0.15581	0	0	-0.302338	-0.00676565	-0.0830608	0.186049	-0.413262	1.46585	0.543638	0.367327	0	0	-0.168084	-0.322627	0.301238	0.581455	1.17087	0	0
